<?xml version="1.0" standalone="no"?>
<!DOCTYPE svg PUBLIC "-//W3C//DTD SVG 20010904//EN"
 "http://www.w3.org/TR/2001/REC-SVG-20010904/DTD/svg10.dtd">
<svg version="1.0" xmlns="http://www.w3.org/2000/svg"
 width="200.000000pt" height="106.000000pt" viewBox="0 0 200.000000 106.000000"
 preserveAspectRatio="xMidYMid meet">

<g transform="translate(0.000000,106.000000) scale(0.100000,-0.100000)"
fill="#000000" stroke="none">
<path d="M572 892 l-142 -137 0 -201 0 -201 140 -136 c136 -134 140 -137 183
-137 36 0 48 -6 77 -35 l34 -35 210 0 211 0 143 136 142 136 0 203 0 202 -145
142 -145 141 -48 0 c-41 0 -53 5 -77 30 l-29 30 -205 0 -206 -1 -143 -137z"/>
<path d="M118 703 c21 -4 22 -8 22 -128 0 -120 -1 -124 -22 -128 -13 -2 -3 -4
22 -4 25 -1 37 1 28 4 -27 7 -23 71 6 107 13 16 28 26 33 23 5 -3 28 -33 51
-66 36 -51 40 -60 25 -64 -10 -3 5 -5 32 -4 28 0 40 2 27 4 -14 3 -44 32 -76
76 l-54 72 47 50 c25 28 55 53 66 57 12 3 -1 6 -30 6 -31 0 -42 -3 -29 -6 20
-6 16 -14 -47 -81 l-69 -75 0 76 c0 71 2 77 23 81 12 2 0 4 -28 4 -27 0 -40
-2 -27 -4z"/>
<path d="M1736 619 c-21 -17 -26 -18 -26 -5 0 11 -9 16 -27 15 -17 -1 -21 -3
-10 -6 14 -4 17 -17 17 -88 0 -71 -3 -84 -17 -88 -10 -3 2 -5 27 -5 25 0 37 2
28 5 -15 4 -18 16 -18 74 0 62 2 70 25 85 33 21 71 21 95 -1 28 -25 30 -151 3
-158 -10 -3 2 -5 27 -4 25 0 35 2 23 4 -21 4 -23 10 -23 74 0 61 -3 73 -25 94
-30 30 -64 32 -99 4z"/>
</g>
</svg>
